# xmcd
#
# Track frame offsets:
#	183
#	12830
#	29008
#	45405
#	64395
#	74218
#	86125
#	99375
#	112648
#	128063
#	142798
#	158008
#	171325
#	185898
#	194753
#	223075
#
# Disc length: 3246 seconds
#
# Revision: 4
# Processed by: cddbd v1.5.2PL0 Copyright (c) Steve Scherf et al.
# Submitted via: audiograbber 1.83.01
#
DISCID=ec0cac10
DTITLE=Ray Charles - Collection
DYEAR=1989
DGENRE=Blues
TTITLE0=Yesterday
TTITLE1=Your Cheatin' Heart
TTITLE2=Georgia On My Mind
TTITLE3=I Can't Stop Loving You
TTITLE4=Busted
TTITLE5=Together Again
TTITLE6=Take These Chains From My Heart
TTITLE7=Crying Time
TTITLE8=Half As Much
TTITLE9=Here We Go Again
TTITLE10=Born To Lose
TTITLE11=Eleanor Rigby
TTITLE12=You Don't Know Me
TTITLE13=Hit The Road Jack
TTITLE14=I Gotta Woman (Live)
TTITLE15=What'd I Say (Live)
EXTD=(c) 1991 Arcade Benelux\nCD-ID =01 5520 61
EXTT0=
EXTT1=
EXTT2=
EXTT3=
EXTT4=
EXTT5=
EXTT6=
EXTT7=
EXTT8=
EXTT9=
EXTT10=
EXTT11=
EXTT12=
EXTT13=
EXTT14=
EXTT15=
PLAYORDER=
